STARTFONT 2.1
COMMENT +
COMMENT  Copyright 1984-1989, 1994 Adobe Systems Incorporated.
COMMENT  Copyright 1988, 1994 Digital Equipment Corporation.
COMMENT  Copyright 1996 BIZNET Poland, Inc.
COMMENT
COMMENT  Permission to use, copy, modify, distribute and sell this software
COMMENT  and its documentation for any purpose and without fee is hereby
COMMENT  granted, provided that the above copyright notices appear in all
COMMENT  copies and that both those copyright notices and this permission
COMMENT  notice appear in supporting documentation, and that the names of
COMMENT  Adobe Systems and Digital Equipment Corporation not be used in
COMMENT  advertising or publicity pertaining to distribution of the software
COMMENT  without specific, written prior permission.  Adobe Systems and
COMMENT  Digital Equipment Corporation make no representations about the
COMMENT  suitability of this software for any purpose.  It is provided "as
COMMENT  is" without express or implied warranty.
COMMENT -
FONT -BIZNET-Kathimerini-Bold-R-Normal--12-120-75-75-P-67-ISO8859-2
SIZE 12 75 75
FONTBOUNDINGBOX 11 12 -1 -3
STARTPROPERTIES 25
FOUNDRY "BIZNET"
FAMILY_NAME "BIZNET Kathimerini"
WEIGHT_NAME "Bold"
SLANT "R"
SETWIDTH_NAME "Normal"
ADD_STYLE_NAME ""
PIXEL_SIZE 12
POINT_SIZE 120
RESOLUTION_X 75
RESOLUTION_Y 75
SPACING "P"
AVERAGE_WIDTH 67
CHARSET_REGISTRY "ISO8859"
CHARSET_ENCODING "2"
CAP_HEIGHT 9
X_HEIGHT 6
FONT_ASCENT 11
FONT_DESCENT 3
FACE_NAME "BIZNET Kathimerini Bold"
DEFAULT_CHAR 32
RELATIVE_SETWIDTH 50
RELATIVE_WEIGHT 70
CHARSET_COLLECTIONS "ASCII ISO8859-2"
COPYRIGHT "Copyright (c) 1984, 1987 Adobe Systems Incorporated. All Rights Reserved. Copyright (c) 1988, 1991 Digital Equipment Corporation. All Rights Reserved. Copyright (c) 1996 BIZNET Poland, Inc. All Rights Reserved."
NOTICE "The name "BIZNET" is a registered trademark of BIZNET Poland, Inc."
ENDPROPERTIES
CHARS 190
STARTCHAR space
ENCODING 32
SWIDTH 250 0
DWIDTH 3 0
BBX 1 1 -1 0
BITMAP
00
ENDCHAR
STARTCHAR exclam
ENCODING 33
SWIDTH 333 0
DWIDTH 4 0
BBX 2 9 1 0
BITMAP
C0
C0
C0
C0
C0
80
00
C0
C0
ENDCHAR
STARTCHAR quotedbl
ENCODING 34
SWIDTH 555 0
DWIDTH 5 0
BBX 3 4 1 5
BITMAP
A0
A0
A0
A0
ENDCHAR
STARTCHAR numbersign
ENCODING 35
SWIDTH 500 0
DWIDTH 6 0
BBX 7 8 -1 1
BITMAP
14
14
7E
28
28
FC
50
50
ENDCHAR
STARTCHAR dollar
ENCODING 36
SWIDTH 500 0
DWIDTH 6 0
BBX 5 11 0 -1
BITMAP
20
70
B8
E8
F0
78
38
A8
B8
70
20
ENDCHAR
STARTCHAR percent
ENCODING 37
SWIDTH 1000 0
DWIDTH 12 0
BBX 9 9 1 0
BITMAP
6100
DF00
D600
D400
6B00
1680
3680
6680
4300
ENDCHAR
STARTCHAR ampersand
ENCODING 38
SWIDTH 833 0
DWIDTH 10 0
BBX 8 9 1 0
BITMAP
38
6C
68
33
7A
CC
CC
EF
72
ENDCHAR
STARTCHAR quoteright
ENCODING 39
SWIDTH 333 0
DWIDTH 4 0
BBX 2 4 1 5
BITMAP
C0
C0
40
80
ENDCHAR
STARTCHAR parenleft
ENCODING 40
SWIDTH 333 0
DWIDTH 4 0
BBX 3 12 0 -3
BITMAP
20
60
40
C0
C0
C0
C0
C0
C0
40
60
20
ENDCHAR
STARTCHAR parenright
ENCODING 41
SWIDTH 333 0
DWIDTH 4 0
BBX 3 12 0 -3
BITMAP
80
C0
40
60
60
60
60
60
60
40
C0
80
ENDCHAR
STARTCHAR asterisk
ENCODING 42
SWIDTH 500 0
DWIDTH 6 0
BBX 5 5 0 4
BITMAP
20
A8
70
A8
20
ENDCHAR
STARTCHAR plus
ENCODING 43
SWIDTH 570 0
DWIDTH 7 0
BBX 5 5 1 1
BITMAP
20
20
F8
20
20
ENDCHAR
STARTCHAR comma
ENCODING 44
SWIDTH 250 0
DWIDTH 4 0
BBX 2 4 1 -2
BITMAP
C0
C0
40
80
ENDCHAR
STARTCHAR minus
ENCODING 45
SWIDTH 570 0
DWIDTH 7 0
BBX 5 1 1 3
BITMAP
F8
ENDCHAR
STARTCHAR period
ENCODING 46
SWIDTH 250 0
DWIDTH 4 0
BBX 2 2 1 0
BITMAP
C0
C0
ENDCHAR
STARTCHAR slash
ENCODING 47
SWIDTH 278 0
DWIDTH 4 0
BBX 3 9 0 0
BITMAP
20
20
60
40
40
C0
80
80
80
ENDCHAR
STARTCHAR zero
ENCODING 48
SWIDTH 500 0
DWIDTH 6 0
BBX 5 9 0 0
BITMAP
70
D8
D8
D8
D8
D8
D8
D8
70
ENDCHAR
STARTCHAR one
ENCODING 49
SWIDTH 500 0
DWIDTH 6 0
BBX 4 9 1 0
BITMAP
60
E0
60
60
60
60
60
60
F0
ENDCHAR
STARTCHAR two
ENCODING 50
SWIDTH 500 0
DWIDTH 6 0
BBX 5 9 0 0
BITMAP
70
F8
98
18
10
20
48
F8
F8
ENDCHAR
STARTCHAR three
ENCODING 51
SWIDTH 500 0
DWIDTH 6 0
BBX 5 9 0 0
BITMAP
70
F8
98
18
30
18
18
D8
F0
ENDCHAR
STARTCHAR four
ENCODING 52
SWIDTH 500 0
DWIDTH 6 0
BBX 6 9 0 0
BITMAP
18
18
38
58
58
D8
FC
18
18
ENDCHAR
STARTCHAR five
ENCODING 53
SWIDTH 500 0
DWIDTH 6 0
BBX 6 9 0 0
BITMAP
7C
70
C0
F0
78
18
98
D8
F0
ENDCHAR
STARTCHAR six
ENCODING 54
SWIDTH 500 0
DWIDTH 6 0
BBX 5 9 0 0
BITMAP
18
70
60
C0
F0
D8
D8
D8
70
ENDCHAR
STARTCHAR seven
ENCODING 55
SWIDTH 500 0
DWIDTH 6 0
BBX 5 9 0 0
BITMAP
F8
F8
88
10
10
30
30
60
60
ENDCHAR
STARTCHAR eight
ENCODING 56
SWIDTH 500 0
DWIDTH 6 0
BBX 5 9 0 0
BITMAP
70
D8
C8
E8
70
B8
98
D8
70
ENDCHAR
STARTCHAR nine
ENCODING 57
SWIDTH 500 0
DWIDTH 6 0
BBX 5 9 0 0
BITMAP
70
D8
D8
D8
78
18
30
70
C0
ENDCHAR
STARTCHAR colon
ENCODING 58
SWIDTH 333 0
DWIDTH 4 0
BBX 2 6 1 0
BITMAP
C0
C0
00
00
C0
C0
ENDCHAR
STARTCHAR semicolon
ENCODING 59
SWIDTH 333 0
DWIDTH 4 0
BBX 2 8 1 -2
BITMAP
C0
C0
00
00
C0
C0
40
80
ENDCHAR
STARTCHAR less
ENCODING 60
SWIDTH 570 0
DWIDTH 7 0
BBX 6 5 0 1
BITMAP
1C
70
C0
70
1C
ENDCHAR
STARTCHAR equal
ENCODING 61
SWIDTH 570 0
DWIDTH 7 0
BBX 5 3 1 2
BITMAP
F8
00
F8
ENDCHAR
STARTCHAR greater
ENCODING 62
SWIDTH 570 0
DWIDTH 8 0
BBX 6 5 0 1
BITMAP
E0
38
0C
38
E0
ENDCHAR
STARTCHAR question
ENCODING 63
SWIDTH 500 0
DWIDTH 7 0
BBX 5 9 1 0
BITMAP
70
D8
D8
18
30
20
00
60
60
ENDCHAR
STARTCHAR at
ENCODING 64
SWIDTH 930 0
DWIDTH 12 0
BBX 11 11 0 -2
BITMAP
0F80
38C0
7060
66A0
CDA0
D920
DB20
DB40
6D80
3000
1F00
ENDCHAR
STARTCHAR A
ENCODING 65
SWIDTH 722 0
DWIDTH 9 0
BBX 9 9 -1 0
BITMAP
0C00
0C00
1E00
1600
3600
2300
7F00
4380
E780
ENDCHAR
STARTCHAR B
ENCODING 66
SWIDTH 667 0
DWIDTH 9 0
BBX 8 9 0 0
BITMAP
FE
67
63
66
7C
67
63
67
FE
ENDCHAR
STARTCHAR C
ENCODING 67
SWIDTH 722 0
DWIDTH 8 0
BBX 7 9 0 0
BITMAP
3A
66
C2
C0
C0
C0
C0
62
3C
ENDCHAR
STARTCHAR D
ENCODING 68
SWIDTH 722 0
DWIDTH 9 0
BBX 8 9 0 0
BITMAP
FC
66
63
63
63
63
63
66
FC
ENDCHAR
STARTCHAR E
ENCODING 69
SWIDTH 667 0
DWIDTH 8 0
BBX 7 9 0 0
BITMAP
FE
66
62
68
78
68
62
66
FE
ENDCHAR
STARTCHAR F
ENCODING 70
SWIDTH 611 0
DWIDTH 8 0
BBX 7 9 0 0
BITMAP
FE
66
62
68
78
68
60
60
F0
ENDCHAR
STARTCHAR G
ENCODING 71
SWIDTH 778 0
DWIDTH 9 0
BBX 8 9 0 0
BITMAP
3A
66
C2
C0
C0
CF
C6
66
3C
ENDCHAR
STARTCHAR H
ENCODING 72
SWIDTH 778 0
DWIDTH 10 0
BBX 9 9 0 0
BITMAP
F780
6300
6300
6300
7F00
6300
6300
6300
F780
ENDCHAR
STARTCHAR I
ENCODING 73
SWIDTH 389 0
DWIDTH 5 0
BBX 4 9 0 0
BITMAP
F0
60
60
60
60
60
60
60
F0
ENDCHAR
STARTCHAR J
ENCODING 74
SWIDTH 500 0
DWIDTH 7 0
BBX 6 10 0 -1
BITMAP
3C
18
18
18
18
18
18
D8
D8
70
ENDCHAR
STARTCHAR K
ENCODING 75
SWIDTH 778 0
DWIDTH 10 0
BBX 9 9 0 0
BITMAP
F780
6600
6C00
6800
7800
6C00
6600
6300
F780
ENDCHAR
STARTCHAR L
ENCODING 76
SWIDTH 667 0
DWIDTH 8 0
BBX 7 9 0 0
BITMAP
F0
60
60
60
60
60
62
66
FE
ENDCHAR
STARTCHAR M
ENCODING 77
SWIDTH 944 0
DWIDTH 11 0
BBX 10 9 0 0
BITMAP
E1C0
7380
7380
7580
5D80
5D80
4980
4980
E3C0
ENDCHAR
STARTCHAR N
ENCODING 78
SWIDTH 722 0
DWIDTH 9 0
BBX 8 9 0 0
BITMAP
E7
72
72
5A
5A
4E
4E
46
E2
ENDCHAR
STARTCHAR O
ENCODING 79
SWIDTH 778 0
DWIDTH 9 0
BBX 8 9 0 0
BITMAP
3C
66
C3
C3
C3
C3
C3
66
3C
ENDCHAR
STARTCHAR P
ENCODING 80
SWIDTH 611 0
DWIDTH 8 0
BBX 7 9 0 0
BITMAP
FC
66
66
66
7C
60
60
60
F0
ENDCHAR
STARTCHAR Q
ENCODING 81
SWIDTH 778 0
DWIDTH 9 0
BBX 8 11 0 -2
BITMAP
3C
66
C3
C3
C3
C3
C3
66
3C
1C
0F
ENDCHAR
STARTCHAR R
ENCODING 82
SWIDTH 722 0
DWIDTH 9 0
BBX 9 9 0 0
BITMAP
FC00
6600
6600
6600
7C00
6C00
6600
6300
F780
ENDCHAR
STARTCHAR S
ENCODING 83
SWIDTH 556 0
DWIDTH 7 0
BBX 6 9 0 0
BITMAP
7C
CC
C4
E0
78
1C
8C
CC
F8
ENDCHAR
STARTCHAR T
ENCODING 84
SWIDTH 667 0
DWIDTH 9 0
BBX 8 9 0 0
BITMAP
FF
99
99
18
18
18
18
18
3C
ENDCHAR
STARTCHAR U
ENCODING 85
SWIDTH 722 0
DWIDTH 9 0
BBX 8 9 0 0
BITMAP
F7
62
62
62
62
62
62
62
3C
ENDCHAR
STARTCHAR V
ENCODING 86
SWIDTH 722 0
DWIDTH 9 0
BBX 9 9 0 0
BITMAP
F380
6100
6200
3200
3200
1C00
1C00
0800
0800
ENDCHAR
STARTCHAR W
ENCODING 87
SWIDTH 1000 0
DWIDTH 12 0
BBX 11 9 0 0
BITMAP
EF60
6640
6640
72C0
3680
3680
3B80
1900
1100
ENDCHAR
STARTCHAR X
ENCODING 88
SWIDTH 722 0
DWIDTH 9 0
BBX 8 9 0 0
BITMAP
F7
62
74
38
18
3C
2E
46
EF
ENDCHAR
STARTCHAR Y
ENCODING 89
SWIDTH 722 0
DWIDTH 9 0
BBX 8 9 0 0
BITMAP
F7
62
76
34
3C
18
18
18
3C
ENDCHAR
STARTCHAR Z
ENCODING 90
SWIDTH 667 0
DWIDTH 8 0
BBX 7 9 0 0
BITMAP
FE
CE
8C
18
38
30
62
E6
FE
ENDCHAR
STARTCHAR bracketleft
ENCODING 91
SWIDTH 333 0
DWIDTH 4 0
BBX 3 12 0 -3
BITMAP
E0
C0
C0
C0
C0
C0
C0
C0
C0
C0
C0
E0
ENDCHAR
STARTCHAR backslash
ENCODING 92
SWIDTH 278 0
DWIDTH 3 0
BBX 3 9 0 0
BITMAP
80
80
C0
40
40
60
20
20
20
ENDCHAR
STARTCHAR bracketright
ENCODING 93
SWIDTH 333 0
DWIDTH 4 0
BBX 3 12 0 -3
BITMAP
E0
60
60
60
60
60
60
60
60
60
60
E0
ENDCHAR
STARTCHAR asciicircum
ENCODING 94
SWIDTH 581 0
DWIDTH 7 0
BBX 5 5 1 4
BITMAP
20
70
50
D8
88
ENDCHAR
STARTCHAR underscore
ENCODING 95
SWIDTH 500 0
DWIDTH 6 0
BBX 6 1 0 -3
BITMAP
FC
ENDCHAR
STARTCHAR quoteleft
ENCODING 96
SWIDTH 333 0
DWIDTH 4 0
BBX 2 4 1 5
BITMAP
40
80
C0
C0
ENDCHAR
STARTCHAR a
ENCODING 97
SWIDTH 500 0
DWIDTH 7 0
BBX 7 6 0 0
BITMAP
78
CC
3C
CC
CC
76
ENDCHAR
STARTCHAR b
ENCODING 98
SWIDTH 556 0
DWIDTH 6 0
BBX 6 9 -1 0
BITMAP
E0
60
60
78
6C
6C
6C
6C
58
ENDCHAR
STARTCHAR c
ENCODING 99
SWIDTH 444 0
DWIDTH 6 0
BBX 5 6 0 0
BITMAP
78
C8
C0
C0
E8
70
ENDCHAR
STARTCHAR d
ENCODING 100
SWIDTH 556 0
DWIDTH 6 0
BBX 6 9 0 0
BITMAP
38
18
18
78
D8
D8
D8
D8
6C
ENDCHAR
STARTCHAR e
ENCODING 101
SWIDTH 444 0
DWIDTH 7 0
BBX 6 6 0 0
BITMAP
78
CC
FC
C0
E4
78
ENDCHAR
STARTCHAR f
ENCODING 102
SWIDTH 333 0
DWIDTH 4 0
BBX 5 9 -1 0
BITMAP
38
68
60
F0
60
60
60
60
F0
ENDCHAR
STARTCHAR g
ENCODING 103
SWIDTH 500 0
DWIDTH 6 0
BBX 6 9 0 -3
BITMAP
7C
C8
C8
F0
60
78
CC
CC
78
ENDCHAR
STARTCHAR h
ENCODING 104
SWIDTH 556 0
DWIDTH 6 0
BBX 7 9 -1 0
BITMAP
E0
60
60
78
6C
6C
6C
6C
EE
ENDCHAR
STARTCHAR i
ENCODING 105
SWIDTH 278 0
DWIDTH 3 0
BBX 4 9 -1 0
BITMAP
60
60
00
E0
60
60
60
60
F0
ENDCHAR
STARTCHAR j
ENCODING 106
SWIDTH 333 0
DWIDTH 3 0
BBX 3 12 -1 -3
BITMAP
60
60
00
E0
60
60
60
60
60
60
60
C0
ENDCHAR
STARTCHAR k
ENCODING 107
SWIDTH 556 0
DWIDTH 7 0
BBX 8 9 -1 0
BITMAP
E0
60
60
66
6C
78
6C
66
E7
ENDCHAR
STARTCHAR l
ENCODING 108
SWIDTH 278 0
DWIDTH 3 0
BBX 4 9 -1 0
BITMAP
E0
60
60
60
60
60
60
60
F0
ENDCHAR
STARTCHAR m
ENCODING 109
SWIDTH 833 0
DWIDTH 9 0
BBX 10 6 -1 0
BITMAP
DB00
6D80
6D80
6D80
6D80
EDC0
ENDCHAR
STARTCHAR n
ENCODING 110
SWIDTH 556 0
DWIDTH 6 0
BBX 7 6 -1 0
BITMAP
F8
6C
6C
6C
6C
EE
ENDCHAR
STARTCHAR o
ENCODING 111
SWIDTH 500 0
DWIDTH 7 0
BBX 6 6 0 0
BITMAP
78
CC
CC
CC
CC
78
ENDCHAR
STARTCHAR p
ENCODING 112
SWIDTH 556 0
DWIDTH 6 0
BBX 6 9 -1 -3
BITMAP
F8
6C
6C
6C
6C
78
60
60
F0
ENDCHAR
STARTCHAR q
ENCODING 113
SWIDTH 556 0
DWIDTH 6 0
BBX 6 9 0 -3
BITMAP
78
D8
D8
D8
D8
78
18
18
3C
ENDCHAR
STARTCHAR r
ENCODING 114
SWIDTH 444 0
DWIDTH 5 0
BBX 5 6 -1 0
BITMAP
D8
68
60
60
60
F0
ENDCHAR
STARTCHAR s
ENCODING 115
SWIDTH 389 0
DWIDTH 6 0
BBX 5 6 0 0
BITMAP
78
C8
F0
78
98
F0
ENDCHAR
STARTCHAR t
ENCODING 116
SWIDTH 333 0
DWIDTH 4 0
BBX 4 8 -1 0
BITMAP
20
60
F0
60
60
60
60
30
ENDCHAR
STARTCHAR u
ENCODING 117
SWIDTH 556 0
DWIDTH 6 0
BBX 7 6 -1 0
BITMAP
EC
6C
6C
6C
7C
36
ENDCHAR
STARTCHAR v
ENCODING 118
SWIDTH 500 0
DWIDTH 6 0
BBX 7 6 -1 0
BITMAP
E6
64
34
3C
18
18
ENDCHAR
STARTCHAR w
ENCODING 119
SWIDTH 722 0
DWIDTH 9 0
BBX 10 6 -1 0
BITMAP
EEC0
6480
3680
3700
1B00
1B00
ENDCHAR
STARTCHAR x
ENCODING 120
SWIDTH 500 0
DWIDTH 6 0
BBX 6 6 0 0
BITMAP
EC
68
30
30
58
DC
ENDCHAR
STARTCHAR y
ENCODING 121
SWIDTH 500 0
DWIDTH 6 0
BBX 6 9 0 -3
BITMAP
CC
C8
C8
68
70
30
20
E0
C0
ENDCHAR
STARTCHAR z
ENCODING 122
SWIDTH 444 0
DWIDTH 6 0
BBX 5 6 0 0
BITMAP
F8
98
30
60
C8
F8
ENDCHAR
STARTCHAR braceleft
ENCODING 123
SWIDTH 394 0
DWIDTH 5 0
BBX 5 12 -1 -3
BITMAP
18
30
30
30
60
C0
60
30
30
30
30
18
ENDCHAR
STARTCHAR bar
ENCODING 124
SWIDTH 220 0
DWIDTH 3 0
BBX 1 12 1 -3
BITMAP
80
80
80
80
80
80
80
80
80
80
80
80
ENDCHAR
STARTCHAR braceright
ENCODING 125
SWIDTH 394 0
DWIDTH 5 0
BBX 5 12 0 -3
BITMAP
C0
60
60
60
30
18
30
60
60
60
60
C0
ENDCHAR
STARTCHAR asciitilde
ENCODING 126
SWIDTH 520 0
DWIDTH 7 0
BBX 6 3 0 3
BITMAP
64
FC
98
ENDCHAR
STARTCHAR Aogonek
ENCODING 161
SWIDTH 722 0
DWIDTH 9 0
BBX 10 12 -1 -3
BITMAP
0C00
0C00
1E00
1600
3600
2300
7F00
4380
E780
0080
0080
0040
ENDCHAR
STARTCHAR breve
ENCODING 162
SWIDTH 500 0
DWIDTH 6 0
BBX 4 2 1 8
BITMAP
90
60
ENDCHAR
STARTCHAR Lslash
ENCODING 163
SWIDTH 667 0
DWIDTH 8 0
BBX 7 9 0 0
BITMAP
F0
60
60
70
60
E0
62
66
FE
ENDCHAR
STARTCHAR currency
ENCODING 164
SWIDTH 500 0
DWIDTH 7 0
BBX 6 6 0 2
BITMAP
CC
FC
48
48
FC
CC
ENDCHAR
STARTCHAR Lcaron
ENCODING 165
SWIDTH 667 0
DWIDTH 8 0
BBX 7 9 0 0
BITMAP
F4
64
64
64
60
60
62
66
FE
ENDCHAR
STARTCHAR Sacute
ENCODING 166
SWIDTH 556 0
DWIDTH 7 0
BBX 6 12 0 0
BITMAP
08
10
00
7C
CC
C4
E0
78
1C
8C
CC
F8
ENDCHAR
STARTCHAR section
ENCODING 167
SWIDTH 500 0
DWIDTH 6 0
BBX 5 12 0 -3
BITMAP
78
C8
E0
70
B8
D8
E8
70
38
98
98
70
ENDCHAR
STARTCHAR dieresis
ENCODING 168
SWIDTH 333 0
DWIDTH 4 0
BBX 3 2 0 7
BITMAP
A0
A0
ENDCHAR
STARTCHAR Scaron
ENCODING 169
SWIDTH 556 0
DWIDTH 7 0
BBX 6 12 0 0
BITMAP
28
10
00
7C
CC
C4
E0
78
1C
8C
CC
F8
ENDCHAR
STARTCHAR Scedilla
ENCODING 170
SWIDTH 556 0
DWIDTH 7 0
BBX 6 12 0 -3
BITMAP
7C
CC
C4
E0
78
1C
8C
CC
F8
20
10
70
ENDCHAR
STARTCHAR Tcaron
ENCODING 171
SWIDTH 667 0
DWIDTH 9 0
BBX 8 12 0 0
BITMAP
14
08
00
FF
99
99
18
18
18
18
18
3C
ENDCHAR
STARTCHAR Zacute
ENCODING 172
SWIDTH 667 0
DWIDTH 8 0
BBX 7 12 0 0
BITMAP
08
10
00
FE
CE
8C
18
38
30
62
E6
FE
ENDCHAR
STARTCHAR hyphen
ENCODING 173
SWIDTH 333 0
DWIDTH 4 0
BBX 3 2 0 2
BITMAP
E0
E0
ENDCHAR
STARTCHAR Zcaron
ENCODING 174
SWIDTH 667 0
DWIDTH 8 0
BBX 7 12 0 0
BITMAP
28
10
00
FE
CE
8C
18
38
30
62
E6
FE
ENDCHAR
STARTCHAR Zdotaccent
ENCODING 175
SWIDTH 667 0
DWIDTH 8 0
BBX 7 12 0 0
BITMAP
10
10
00
FE
CE
8C
18
38
30
62
E6
FE
ENDCHAR
STARTCHAR degree
ENCODING 176
SWIDTH 400 0
DWIDTH 5 0
BBX 4 4 0 5
BITMAP
60
90
90
60
ENDCHAR
STARTCHAR aogonek
ENCODING 177
SWIDTH 500 0
DWIDTH 7 0
BBX 8 9 0 -3
BITMAP
78
CC
3C
CC
CC
76
02
02
01
ENDCHAR
STARTCHAR ogonek
ENCODING 178
SWIDTH 666 0
DWIDTH 8 0
BBX 4 3 2 -3
BITMAP
80
D0
60
ENDCHAR
STARTCHAR lslash
ENCODING 179
SWIDTH 278 0
DWIDTH 3 0
BBX 4 9 -1 0
BITMAP
E0
60
60
70
60
E0
60
60
F0
ENDCHAR
STARTCHAR acute
ENCODING 180
SWIDTH 333 0
DWIDTH 4 0
BBX 2 2 1 7
BITMAP
40
80
ENDCHAR
STARTCHAR lcaron
ENCODING 181
SWIDTH 370 0
DWIDTH 4 0
BBX 6 9 -1 0
BITMAP
E4
64
64
64
60
60
60
60
F0
ENDCHAR
STARTCHAR sacute
ENCODING 182
SWIDTH 389 0
DWIDTH 6 0
BBX 5 9 0 0
BITMAP
08
10
00
78
C8
F0
78
98
F0
ENDCHAR
STARTCHAR caron
ENCODING 183
SWIDTH 416 0
DWIDTH 5 0
BBX 3 2 1 7
BITMAP
A0
40
ENDCHAR
STARTCHAR cedilla
ENCODING 184
SWIDTH 583 0
DWIDTH 7 0
BBX 3 3 2 -3
BITMAP
40
20
E0
ENDCHAR
STARTCHAR scaron
ENCODING 185
SWIDTH 389 0
DWIDTH 6 0
BBX 5 9 0 0
BITMAP
28
10
00
78
C8
F0
78
98
F0
ENDCHAR
STARTCHAR scedilla
ENCODING 186
SWIDTH 389 0
DWIDTH 6 0
BBX 5 9 0 -3
BITMAP
78
C8
F0
78
98
F0
20
10
70
ENDCHAR
STARTCHAR tcaron
ENCODING 187
SWIDTH 333 0
DWIDTH 4 0
BBX 5 11 -1 0
BITMAP
08
08
08
28
60
F0
60
60
60
60
30
ENDCHAR
STARTCHAR zacute
ENCODING 188
SWIDTH 444 0
DWIDTH 6 0
BBX 5 9 0 0
BITMAP
10
20
00
F8
98
30
60
C8
F8
ENDCHAR
STARTCHAR hungarumlaut
ENCODING 189
SWIDTH 500 0
DWIDTH 6 0
BBX 4 2 1 7
BITMAP
50
A0
ENDCHAR
STARTCHAR zcaron
ENCODING 190
SWIDTH 444 0
DWIDTH 6 0
BBX 5 9 0 0
BITMAP
50
20
00
F8
98
30
60
C8
F8
ENDCHAR
STARTCHAR zdotaccent
ENCODING 191
SWIDTH 444 0
DWIDTH 6 0
BBX 5 9 0 0
BITMAP
20
20
00
F8
98
30
60
C8
F8
ENDCHAR
STARTCHAR Racute
ENCODING 192
SWIDTH 722 0
DWIDTH 9 0
BBX 9 12 0 0
BITMAP
0800
1000
0000
FC00
6600
6600
6600
7C00
6C00
6600
6300
F780
ENDCHAR
STARTCHAR Aacute
ENCODING 193
SWIDTH 722 0
DWIDTH 9 0
BBX 9 12 -1 0
BITMAP
0200
0400
0000
0C00
0C00
1E00
1600
3600
2300
7F00
4380
E780
ENDCHAR
STARTCHAR Acircumflex
ENCODING 194
SWIDTH 722 0
DWIDTH 9 0
BBX 9 12 -1 0
BITMAP
0C00
1200
0000
0C00
0C00
1E00
1600
3600
2300
7F00
4380
E780
ENDCHAR
STARTCHAR Abreve
ENCODING 195
SWIDTH 722 0
DWIDTH 9 0
BBX 9 12 -1 0
BITMAP
1200
0C00
0000
0C00
0C00
1E00
1600
3600
2300
7F00
4380
E780
ENDCHAR
STARTCHAR Adieresis
ENCODING 196
SWIDTH 722 0
DWIDTH 9 0
BBX 9 12 -1 0
BITMAP
1200
1200
0000
0C00
0C00
1E00
1600
3600
2300
7F00
4380
E780
ENDCHAR
STARTCHAR Lacute
ENCODING 197
SWIDTH 667 0
DWIDTH 8 0
BBX 7 12 0 0
BITMAP
10
20
00
F0
60
60
60
60
60
62
66
FE
ENDCHAR
STARTCHAR Cacute
ENCODING 198
SWIDTH 722 0
DWIDTH 8 0
BBX 7 12 0 0
BITMAP
04
08
00
3A
66
C2
C0
C0
C0
C0
62
3C
ENDCHAR
STARTCHAR Ccedilla
ENCODING 199
SWIDTH 722 0
DWIDTH 8 0
BBX 7 12 0 -3
BITMAP
3A
66
C2
C0
C0
C0
C0
62
3C
10
08
38
ENDCHAR
STARTCHAR Ccaron
ENCODING 200
SWIDTH 722 0
DWIDTH 8 0
BBX 7 12 0 0
BITMAP
14
08
00
3A
66
C2
C0
C0
C0
C0
62
3C
ENDCHAR
STARTCHAR Eacute
ENCODING 201
SWIDTH 667 0
DWIDTH 8 0
BBX 7 12 0 0
BITMAP
08
10
00
FE
66
62
68
78
68
62
66
FE
ENDCHAR
STARTCHAR Eogonek
ENCODING 202
SWIDTH 667 0
DWIDTH 8 0
BBX 7 12 0 -3
BITMAP
FE
66
62
68
78
68
62
66
FE
04
04
02
ENDCHAR
STARTCHAR Edieresis
ENCODING 203
SWIDTH 667 0
DWIDTH 8 0
BBX 7 12 0 0
BITMAP
24
24
00
FE
66
62
68
78
68
62
66
FE
ENDCHAR
STARTCHAR Ecaron
ENCODING 204
SWIDTH 667 0
DWIDTH 8 0
BBX 7 12 0 0
BITMAP
28
10
00
FE
66
62
68
78
68
62
66
FE
ENDCHAR
STARTCHAR Iacute
ENCODING 205
SWIDTH 389 0
DWIDTH 5 0
BBX 4 12 0 0
BITMAP
20
40
00
F0
60
60
60
60
60
60
60
F0
ENDCHAR
STARTCHAR Icircumflex
ENCODING 206
SWIDTH 389 0
DWIDTH 5 0
BBX 4 12 0 0
BITMAP
60
90
00
F0
60
60
60
60
60
60
60
F0
ENDCHAR
STARTCHAR Dcaron
ENCODING 207
SWIDTH 722 0
DWIDTH 9 0
BBX 8 12 0 0
BITMAP
28
10
00
FC
66
63
63
63
63
63
66
FC
ENDCHAR
STARTCHAR Eth
ENCODING 208
SWIDTH 722 0
DWIDTH 9 0
BBX 8 9 0 0
BITMAP
FC
66
63
63
F3
63
63
66
FC
ENDCHAR
STARTCHAR Nacute
ENCODING 209
SWIDTH 722 0
DWIDTH 9 0
BBX 8 12 0 0
BITMAP
04
08
00
E7
72
72
5A
5A
4E
4E
46
E2
ENDCHAR
STARTCHAR Ncaron
ENCODING 210
SWIDTH 722 0
DWIDTH 9 0
BBX 8 12 0 0
BITMAP
14
08
00
E7
72
72
5A
5A
4E
4E
46
E2
ENDCHAR
STARTCHAR Oacute
ENCODING 211
SWIDTH 778 0
DWIDTH 9 0
BBX 8 12 0 0
BITMAP
04
08
00
3C
66
C3
C3
C3
C3
C3
66
3C
ENDCHAR
STARTCHAR Ocircumflex
ENCODING 212
SWIDTH 778 0
DWIDTH 9 0
BBX 8 12 0 0
BITMAP
18
24
00
3C
66
C3
C3
C3
C3
C3
66
3C
ENDCHAR
STARTCHAR Ohungarumlaut
ENCODING 213
SWIDTH 778 0
DWIDTH 9 0
BBX 8 12 0 0
BITMAP
0A
14
00
3C
66
C3
C3
C3
C3
C3
66
3C
ENDCHAR
STARTCHAR Odieresis
ENCODING 214
SWIDTH 778 0
DWIDTH 9 0
BBX 8 12 0 0
BITMAP
24
24
00
3C
66
C3
C3
C3
C3
C3
66
3C
ENDCHAR
STARTCHAR multiply
ENCODING 215
SWIDTH 570 0
DWIDTH 7 0
BBX 6 5 0 1
BITMAP
84
78
30
78
84
ENDCHAR
STARTCHAR Rcaron
ENCODING 216
SWIDTH 722 0
DWIDTH 9 0
BBX 9 12 0 0
BITMAP
2800
1000
0000
FC00
6600
6600
6600
7C00
6C00
6600
6300
F780
ENDCHAR
STARTCHAR Uring
ENCODING 217
SWIDTH 722 0
DWIDTH 9 0
BBX 8 12 0 0
BITMAP
08
14
08
F7
62
62
62
62
62
62
62
3C
ENDCHAR
STARTCHAR Uacute
ENCODING 218
SWIDTH 722 0
DWIDTH 9 0
BBX 8 12 0 0
BITMAP
04
08
00
F7
62
62
62
62
62
62
62
3C
ENDCHAR
STARTCHAR Uhungarumlaut
ENCODING 219
SWIDTH 722 0
DWIDTH 9 0
BBX 8 12 0 0
BITMAP
0A
14
00
F7
62
62
62
62
62
62
62
3C
ENDCHAR
STARTCHAR Udieresis
ENCODING 220
SWIDTH 722 0
DWIDTH 9 0
BBX 8 12 0 0
BITMAP
24
24
00
F7
62
62
62
62
62
62
62
3C
ENDCHAR
STARTCHAR Yacute
ENCODING 221
SWIDTH 722 0
DWIDTH 9 0
BBX 8 12 0 0
BITMAP
02
04
00
F7
62
76
34
3C
18
18
18
3C
ENDCHAR
STARTCHAR Tcedilla
ENCODING 222
SWIDTH 667 0
DWIDTH 9 0
BBX 8 12 0 -3
BITMAP
FF
99
99
18
18
18
18
18
3C
08
04
1C
ENDCHAR
STARTCHAR germandbls
ENCODING 223
SWIDTH 556 0
DWIDTH 8 0
BBX 7 9 0 0
BITMAP
3C
66
66
6C
66
66
66
66
EC
ENDCHAR
STARTCHAR racute
ENCODING 224
SWIDTH 444 0
DWIDTH 5 0
BBX 5 9 -1 0
BITMAP
10
20
00
D8
68
60
60
60
F0
ENDCHAR
STARTCHAR aacute
ENCODING 225
SWIDTH 500 0
DWIDTH 7 0
BBX 7 9 0 0
BITMAP
10
20
00
78
CC
3C
CC
CC
76
ENDCHAR
STARTCHAR acircumflex
ENCODING 226
SWIDTH 500 0
DWIDTH 7 0
BBX 7 9 0 0
BITMAP
10
28
00
78
CC
3C
CC
CC
76
ENDCHAR
STARTCHAR abreve
ENCODING 227
SWIDTH 500 0
DWIDTH 7 0
BBX 7 9 0 0
BITMAP
48
30
00
78
CC
3C
CC
CC
76
ENDCHAR
STARTCHAR adieresis
ENCODING 228
SWIDTH 500 0
DWIDTH 7 0
BBX 7 9 0 0
BITMAP
28
28
00
78
CC
3C
CC
CC
76
ENDCHAR
STARTCHAR lacute
ENCODING 229
SWIDTH 278 0
DWIDTH 3 0
BBX 4 12 -1 0
BITMAP
10
20
00
E0
60
60
60
60
60
60
60
F0
ENDCHAR
STARTCHAR cacute
ENCODING 230
SWIDTH 444 0
DWIDTH 6 0
BBX 5 9 0 0
BITMAP
08
10
00
78
C8
C0
C0
E8
70
ENDCHAR
STARTCHAR ccedilla
ENCODING 231
SWIDTH 444 0
DWIDTH 6 0
BBX 5 9 0 -3
BITMAP
78
C8
C0
C0
E8
70
20
10
70
ENDCHAR
STARTCHAR ccaron
ENCODING 232
SWIDTH 444 0
DWIDTH 6 0
BBX 5 9 0 0
BITMAP
28
10
00
78
C8
C0
C0
E8
70
ENDCHAR
STARTCHAR eacute
ENCODING 233
SWIDTH 444 0
DWIDTH 7 0
BBX 6 9 0 0
BITMAP
10
20
00
78
CC
FC
C0
E4
78
ENDCHAR
STARTCHAR eogonek
ENCODING 234
SWIDTH 444 0
DWIDTH 7 0
BBX 6 9 0 -3
BITMAP
78
CC
FC
C0
E4
78
20
20
10
ENDCHAR
STARTCHAR edieresis
ENCODING 235
SWIDTH 444 0
DWIDTH 7 0
BBX 6 9 0 0
BITMAP
28
28
00
78
CC
FC
C0
E4
78
ENDCHAR
STARTCHAR ecaron
ENCODING 236
SWIDTH 444 0
DWIDTH 7 0
BBX 6 9 0 0
BITMAP
28
10
00
78
CC
FC
C0
E4
78
ENDCHAR
STARTCHAR iacute
ENCODING 237
SWIDTH 278 0
DWIDTH 3 0
BBX 4 9 -1 0
BITMAP
20
40
00
E0
60
60
60
60
F0
ENDCHAR
STARTCHAR icircumflex
ENCODING 238
SWIDTH 278 0
DWIDTH 3 0
BBX 4 9 -1 0
BITMAP
40
A0
00
E0
60
60
60
60
F0
ENDCHAR
STARTCHAR dcaron
ENCODING 239
SWIDTH 556 0
DWIDTH 6 0
BBX 7 9 0 0
BITMAP
3A
1A
1A
7A
D8
D8
D8
D8
6C
ENDCHAR
STARTCHAR dmacron
ENCODING 240
SWIDTH 556 0
DWIDTH 6 0
BBX 6 9 0 0
BITMAP
18
7C
18
78
D8
D8
D8
D8
6C
ENDCHAR
STARTCHAR nacute
ENCODING 241
SWIDTH 556 0
DWIDTH 6 0
BBX 7 9 -1 0
BITMAP
08
10
00
F8
6C
6C
6C
6C
EE
ENDCHAR
STARTCHAR ncaron
ENCODING 242
SWIDTH 556 0
DWIDTH 6 0
BBX 7 9 -1 0
BITMAP
14
08
00
F8
6C
6C
6C
6C
EE
ENDCHAR
STARTCHAR oacute
ENCODING 243
SWIDTH 500 0
DWIDTH 7 0
BBX 6 9 0 0
BITMAP
10
20
00
78
CC
CC
CC
CC
78
ENDCHAR
STARTCHAR ocircumflex
ENCODING 244
SWIDTH 500 0
DWIDTH 7 0
BBX 6 9 0 0
BITMAP
20
50
00
78
CC
CC
CC
CC
78
ENDCHAR
STARTCHAR ohungarumlaut
ENCODING 245
SWIDTH 500 0
DWIDTH 7 0
BBX 6 9 0 0
BITMAP
14
28
00
78
CC
CC
CC
CC
78
ENDCHAR
STARTCHAR odieresis
ENCODING 246
SWIDTH 500 0
DWIDTH 7 0
BBX 6 9 0 0
BITMAP
50
50
00
78
CC
CC
CC
CC
78
ENDCHAR
STARTCHAR divide
ENCODING 247
SWIDTH 570 0
DWIDTH 7 0
BBX 5 5 1 1
BITMAP
20
00
F8
00
20
ENDCHAR
STARTCHAR rcaron
ENCODING 248
SWIDTH 444 0
DWIDTH 5 0
BBX 5 9 -1 0
BITMAP
28
10
00
D8
68
60
60
60
F0
ENDCHAR
STARTCHAR uring
ENCODING 249
SWIDTH 556 0
DWIDTH 6 0
BBX 7 10 -1 0
BITMAP
10
28
10
00
EC
6C
6C
6C
7C
36
ENDCHAR
STARTCHAR uacute
ENCODING 250
SWIDTH 556 0
DWIDTH 6 0
BBX 7 9 -1 0
BITMAP
08
10
00
EC
6C
6C
6C
7C
36
ENDCHAR
STARTCHAR uhungarumlaut
ENCODING 251
SWIDTH 556 0
DWIDTH 6 0
BBX 7 9 -1 0
BITMAP
14
28
00
EC
6C
6C
6C
7C
36
ENDCHAR
STARTCHAR udieresis
ENCODING 252
SWIDTH 556 0
DWIDTH 6 0
BBX 7 9 -1 0
BITMAP
28
28
00
EC
6C
6C
6C
7C
36
ENDCHAR
STARTCHAR yacute
ENCODING 253
SWIDTH 500 0
DWIDTH 6 0
BBX 6 12 0 -3
BITMAP
10
20
00
CC
C8
C8
68
70
30
20
E0
C0
ENDCHAR
STARTCHAR tcedilla
ENCODING 254
SWIDTH 333 0
DWIDTH 4 0
BBX 5 11 -1 -3
BITMAP
20
60
F0
60
60
60
60
30
10
08
38
ENDCHAR
STARTCHAR dotaccent
ENCODING 255
SWIDTH 416 0
DWIDTH 5 0
BBX 1 2 2 7
BITMAP
80
80
ENDCHAR
ENDFONT
